<svg xmlns="http://www.w3.org/2000/svg" width="333" height="119" viewBox="0 0 333 119" fill="none"><g clip-path="url(#clip0_801_153)"><path d="M53.16 85.0898C51.71 87.1798 50.1 89.1698 48.37 91.0399C49.2 95.6299 51.65 102.05 58.52 106.86C64.03 106.36 69.29 105.01 74.19 102.96C65.71 98.9299 58.47 92.7298 53.16 85.0898Z" fill="#E3E2E3"></path><path d="M53.16 24.0807C58.95 15.7507 67.04 9.13072 76.52 5.16072C69.56 1.85072 61.77 -0.00927734 53.55 -0.00927734C45.33 -0.00927734 37.26 1.91072 30.21 5.33072C39.51 9.31072 47.45 15.8607 53.16 24.0707V24.0807Z" fill="#E3E2E3"></path><path d="M48.37 91.04C50.1 89.18 51.7 87.19 53.16 85.09C47.15 76.43 43.63 65.92 43.63 54.58C43.63 43.2401 47.15 32.7301 53.17 24.0801C47.46 15.8601 39.52 9.32008 30.22 5.34009C12.33 14.0101 0 32.3401 0 53.55C0 83.12 23.98 107.1 53.55 107.1C55.23 107.1 56.88 107.01 58.52 106.86C51.65 102.04 49.2 95.63 48.37 91.04Z" fill="#04C9C1"></path><path d="M53.16 85.09C59.17 76.43 62.7 65.92 62.7 54.5801C62.7 43.2401 59.18 32.7301 53.17 24.0801C47.16 32.7301 43.63 43.2501 43.63 54.5801C43.63 65.91 47.15 76.43 53.16 85.09Z" fill="#70227E"></path><path d="M92.46 90.9699C101.35 81.4099 107.1 67.6199 107.1 53.5399C107.1 32.1899 94.6 13.7599 76.53 5.15991C67.05 9.12991 58.96 15.7399 53.17 24.0799C59.18 32.7299 62.7 43.2499 62.7 54.5799C62.7 65.9099 59.17 76.4299 53.16 85.0899C58.47 92.7299 65.71 98.9299 74.19 102.96C88.31 109.34 103.36 106.13 103.36 106.13C96.14 101.28 93.31 95.6599 92.46 90.9699Z" fill="#A04098"></path><path d="M53.16 24.0801C47.15 32.7301 43.62 43.2501 43.62 54.5801C43.62 65.91 47.14 76.43 53.15 85.09C59.16 76.43 62.69 65.92 62.69 54.5801C62.69 43.2401 59.17 32.7301 53.16 24.0801Z" fill="#78278B"></path><path d="M137.32 45.2201V23.0101H144.31V45.2201H137.32ZM151.99 45.2201V32.5601C151.99 31.4001 151.63 30.4701 150.91 29.7501C150.19 29.0301 149.29 28.6801 148.19 28.6801C147.43 28.6801 146.76 28.8401 146.18 29.1601C145.6 29.4801 145.14 29.9401 144.81 30.5301C144.47 31.1201 144.31 31.8001 144.31 32.5601L141.61 31.2401C141.61 29.5001 141.99 27.9801 142.75 26.6701C143.51 25.3601 144.57 24.3501 145.93 23.6301C147.28 22.9201 148.81 22.5601 150.52 22.5601C152.23 22.5601 153.62 22.9501 154.89 23.7301C156.15 24.5101 157.15 25.5301 157.88 26.8101C158.61 28.0901 158.98 29.4901 158.98 31.0101V45.2201H151.99Z" fill="black"></path><path d="M174.16 45.72C171.88 45.72 169.81 45.21 167.97 44.19C166.13 43.17 164.67 41.78 163.61 40.01C162.54 38.24 162.01 36.26 162.01 34.07C162.01 31.88 162.54 29.91 163.61 28.17C164.68 26.43 166.12 25.05 167.95 24.03C169.78 23.01 171.85 22.5 174.17 22.5C176.49 22.5 178.56 23 180.39 24.01C182.22 25.02 183.66 26.39 184.73 28.15C185.79 29.9 186.33 31.87 186.33 34.07C186.33 36.27 185.8 38.24 184.73 40.01C183.66 41.78 182.21 43.17 180.39 44.19C178.56 45.21 176.49 45.72 174.17 45.72H174.16ZM174.16 39.37C175.16 39.37 176.05 39.15 176.81 38.71C177.57 38.27 178.16 37.65 178.57 36.84C178.98 36.03 179.19 35.11 179.19 34.08C179.19 33.05 178.98 32.14 178.55 31.36C178.12 30.58 177.54 29.97 176.79 29.53C176.04 29.09 175.17 28.87 174.16 28.87C173.15 28.87 172.32 29.09 171.56 29.53C170.8 29.97 170.2 30.59 169.78 31.38C169.35 32.17 169.14 33.09 169.14 34.12C169.14 35.15 169.35 36.03 169.78 36.84C170.21 37.65 170.8 38.27 171.56 38.71C172.32 39.15 173.19 39.37 174.16 39.37Z" fill="black"></path><path d="M194.77 45.22L187.09 23.01H193.95L198.7 39.14L196.69 39.18L201.95 23H207.62L212.92 39.18L210.86 39.14L215.66 23.01H222.52L214.84 45.22H209.13L203.97 29.87H205.71L200.45 45.22H194.78H194.77Z" fill="black"></path><path d="M148.02 84.5899C145.86 84.5899 143.92 84.0999 142.22 83.1299C140.52 82.1599 139.17 80.8099 138.18 79.1099C137.19 77.3999 136.7 75.4799 136.7 73.3499C136.7 71.2199 137.19 69.3499 138.16 67.66C139.13 65.97 140.46 64.6399 142.14 63.6599C143.82 62.6899 145.69 62.2 147.76 62.2C149.71 62.2 151.44 62.6399 152.95 63.5299C154.46 64.4099 155.65 65.6399 156.51 67.2099C157.38 68.7799 157.81 70.5899 157.81 72.6299C157.81 72.8699 157.79 73.1599 157.76 73.4799C157.73 73.7999 157.67 74.1699 157.58 74.5999H138.98V71.8599H155.84L154.7 72.8599C154.73 71.2799 154.46 69.9099 153.9 68.7699C153.34 67.6299 152.53 66.75 151.48 66.12C150.43 65.49 149.16 65.1799 147.66 65.1799C146.16 65.1799 144.75 65.5199 143.59 66.1799C142.43 66.8499 141.53 67.7899 140.87 68.9899C140.21 70.1899 139.89 71.6199 139.89 73.2599C139.89 74.8999 140.23 76.3499 140.92 77.5999C141.61 78.8499 142.57 79.8199 143.8 80.5199C145.03 81.2199 146.46 81.5699 148.07 81.5699C149.38 81.5699 150.58 81.3299 151.68 80.8599C152.78 80.3899 153.7 79.6799 154.47 78.7299L156.53 80.8299C155.52 82.0199 154.28 82.9399 152.81 83.5899C151.33 84.2499 149.74 84.5699 148.03 84.5699L148.02 84.5899Z" fill="black"></path><path d="M171.83 84.59C169.85 84.59 168.07 84.1 166.48 83.13C164.89 82.16 163.64 80.82 162.71 79.13C161.78 77.44 161.32 75.54 161.32 73.44C161.32 71.34 161.78 69.4 162.71 67.7C163.64 66 164.9 64.67 166.48 63.68C168.06 62.69 169.85 62.19 171.83 62.19C173.45 62.19 174.91 62.51 176.22 63.15C177.53 63.79 178.62 64.7 179.49 65.87C180.36 67.04 180.87 68.42 181.02 70.01V76.73C180.84 78.29 180.33 79.65 179.49 80.82C178.65 81.99 177.58 82.92 176.27 83.58C174.96 84.25 173.48 84.59 171.84 84.59H171.83ZM172.38 81.53C173.87 81.53 175.18 81.19 176.31 80.5C177.44 79.81 178.32 78.86 178.96 77.62C179.6 76.39 179.92 74.98 179.92 73.39C179.92 71.8 179.59 70.36 178.94 69.14C178.28 67.92 177.39 66.96 176.27 66.26C175.14 65.56 173.83 65.21 172.34 65.21C170.85 65.21 169.52 65.56 168.36 66.26C167.2 66.96 166.3 67.93 165.64 69.16C164.98 70.39 164.66 71.8 164.66 73.39C164.66 74.98 164.99 76.38 165.64 77.62C166.3 78.86 167.21 79.81 168.38 80.5C169.55 81.18 170.89 81.53 172.38 81.53ZM182.94 84.13H179.74V78.37L180.38 73.07L179.74 67.91V51.78H182.94V84.14V84.13Z" fill="black"></path><path d="M197.92 84.5899C196.18 84.5899 194.63 84.1899 193.26 83.3799C191.89 82.5699 190.81 81.4699 190.04 80.0699C189.26 78.6699 188.87 77.0199 188.87 75.1299V62.6499H192.11V74.9899C192.11 76.2999 192.35 77.4399 192.82 78.4199C193.29 79.3999 193.97 80.1599 194.85 80.7099C195.73 81.2599 196.75 81.5299 197.91 81.5299C199.71 81.5299 201.13 80.9299 202.18 79.7499C203.23 78.5599 203.76 76.9799 203.76 74.9999V62.6599H206.96V75.1399C206.96 76.9999 206.58 78.6399 205.82 80.0799C205.06 81.5099 203.99 82.6199 202.62 83.4199C201.25 84.2099 199.68 84.6099 197.91 84.6099L197.92 84.5899Z" fill="black"></path><path d="M222.74 84.5899C220.64 84.5899 218.74 84.0899 217.05 83.0999C215.36 82.1099 214.02 80.7599 213.03 79.0599C212.04 77.3499 211.55 75.4499 211.55 73.3499C211.55 71.2499 212.05 69.3499 213.03 67.6599C214.02 65.9699 215.36 64.6399 217.05 63.6599C218.74 62.6899 220.64 62.2 222.74 62.2C224.35 62.2 225.86 62.4999 227.26 63.1199C228.66 63.7299 229.85 64.5799 230.82 65.6799L228.72 67.8299C227.99 67.0099 227.1 66.3699 226.07 65.9299C225.03 65.4899 223.92 65.2699 222.73 65.2699C221.21 65.2699 219.85 65.6199 218.66 66.3199C217.47 67.0199 216.54 67.9699 215.87 69.1799C215.2 70.3799 214.86 71.7799 214.86 73.3599C214.86 74.9399 215.2 76.3099 215.87 77.5399C216.54 78.7699 217.47 79.7399 218.66 80.4399C219.85 81.1399 221.2 81.4899 222.73 81.4899C223.95 81.4899 225.07 81.2699 226.11 80.8299C227.14 80.3899 228.03 79.7599 228.76 78.9299L230.91 81.0799C229.91 82.2099 228.69 83.0799 227.28 83.6799C225.87 84.2799 224.35 84.5999 222.73 84.5999L222.74 84.5899Z" fill="black"></path><path d="M244.31 84.5899C242.27 84.5899 240.44 84.0899 238.83 83.0999C237.21 82.1099 235.94 80.7799 235.01 79.0999C234.08 77.4199 233.62 75.5399 233.62 73.4299C233.62 71.3199 234.08 69.3899 235.01 67.6899C235.94 65.9999 237.21 64.6599 238.83 63.6699C240.44 62.6799 242.26 62.1799 244.27 62.1799C245.91 62.1799 247.39 62.5099 248.68 63.1599C249.97 63.8199 251.02 64.7299 251.83 65.8999C252.64 67.0699 253.13 68.4399 253.31 69.9899V76.7099C253.13 78.2699 252.63 79.6399 251.83 80.8199C251.02 82.0099 249.97 82.9299 248.68 83.5799C247.38 84.2399 245.93 84.5599 244.31 84.5599V84.5899ZM244.81 81.5299C247.03 81.5299 248.82 80.7799 250.18 79.2899C251.54 77.7999 252.21 75.8299 252.21 73.3899C252.21 71.7699 251.9 70.3499 251.27 69.1199C250.65 67.8899 249.78 66.9299 248.67 66.2399C247.56 65.5599 246.25 65.2099 244.76 65.2099C243.27 65.2099 241.89 65.5599 240.72 66.2599C239.55 66.9599 238.62 67.9299 237.93 69.1599C237.25 70.3899 236.9 71.7999 236.9 73.3899C236.9 74.9799 237.24 76.3799 237.93 77.5899C238.62 78.8099 239.55 79.7699 240.74 80.4699C241.93 81.1699 243.28 81.5199 244.81 81.5199V81.5299ZM252.03 84.1299V78.3699L252.67 73.0699L252.03 67.9099V62.6499H255.23V84.1299H252.03Z" fill="black"></path><path d="M259.43 65.5298V62.6499H273.46V65.5298H259.43ZM264.87 84.1298V53.5999H268.07V84.1298H264.87Z" fill="black"></path><path d="M279.45 57.99C278.84 57.99 278.32 57.77 277.9 57.33C277.48 56.89 277.26 56.36 277.26 55.75C277.26 55.14 277.47 54.58 277.9 54.15C278.33 53.72 278.84 53.51 279.45 53.51C280.12 53.51 280.66 53.72 281.07 54.15C281.48 54.58 281.69 55.11 281.69 55.75C281.69 56.39 281.48 56.89 281.07 57.33C280.66 57.77 280.12 57.99 279.45 57.99ZM277.85 84.13V62.65H281.1V84.13H277.85Z" fill="black"></path><path d="M297.32 84.5899C295.25 84.5899 293.37 84.0899 291.68 83.0799C289.99 82.0799 288.65 80.7199 287.66 79.0099C286.67 77.2999 286.17 75.3999 286.17 73.2999C286.17 71.1999 286.67 69.3499 287.66 67.6799C288.65 65.9999 289.99 64.6699 291.68 63.6799C293.37 62.6899 295.25 62.1899 297.32 62.1899C299.39 62.1899 301.31 62.6799 302.99 63.6499C304.67 64.6299 306 65.9599 306.99 67.6499C307.98 69.3399 308.48 71.2199 308.48 73.2899C308.48 75.3599 307.98 77.3299 306.99 79.0299C306 80.7199 304.67 82.0699 302.99 83.0699C301.31 84.0699 299.43 84.5799 297.32 84.5799V84.5899ZM297.32 81.4799C298.84 81.4799 300.19 81.1299 301.36 80.4299C302.53 79.7299 303.46 78.7499 304.15 77.5099C304.84 76.2599 305.18 74.8599 305.18 73.3099C305.18 71.7599 304.84 70.3799 304.15 69.1699C303.47 67.9699 302.53 67.0099 301.36 66.3099C300.19 65.6099 298.84 65.2599 297.32 65.2599C295.8 65.2599 294.49 65.6099 293.3 66.3099C292.11 67.0099 291.18 67.9599 290.51 69.1699C289.84 70.3699 289.51 71.7499 289.51 73.3099C289.51 74.8699 289.84 76.2999 290.51 77.5399C291.18 78.7799 292.11 79.7399 293.3 80.4399C294.49 81.1399 295.83 81.4899 297.32 81.4899V81.4799Z" fill="black"></path><path d="M313.54 84.1299V62.6499H316.74V84.1299H313.54ZM329.17 84.1299V71.5199C329.17 69.6299 328.61 68.0999 327.5 66.9299C326.39 65.7599 324.92 65.1699 323.09 65.1699C321.84 65.1699 320.74 65.4399 319.8 65.9899C318.86 66.5399 318.11 67.2899 317.56 68.2299C317.01 69.1699 316.74 70.2599 316.74 71.4699L315.28 70.6499C315.28 69.0299 315.66 67.5899 316.42 66.3099C317.18 65.0299 318.21 64.0299 319.5 63.2899C320.8 62.5599 322.28 62.1899 323.96 62.1899C325.64 62.1899 327.07 62.5899 328.35 63.3799C329.63 64.1699 330.63 65.2399 331.34 66.5799C332.06 67.9199 332.41 69.3799 332.41 70.9699V84.1299H329.17Z" fill="black"></path><path d="M137.18 116.07L140.99 106.79H141.73L145.49 116.07H144.42L141.14 107.87H141.53L138.22 116.07H137.17H137.18ZM138.92 113.65V112.77H143.78V113.65H138.92Z" fill="black"></path><path d="M149.5 116.21C148.92 116.21 148.39 116.07 147.92 115.78C147.45 115.49 147.08 115.1 146.81 114.6C146.54 114.1 146.4 113.54 146.4 112.92C146.4 112.3 146.54 111.73 146.81 111.23C147.08 110.73 147.46 110.33 147.92 110.04C148.39 109.75 148.91 109.6 149.5 109.6C149.98 109.6 150.41 109.69 150.8 109.88C151.19 110.07 151.51 110.34 151.76 110.68C152.01 111.02 152.17 111.43 152.21 111.9V113.88C152.16 114.34 152 114.74 151.76 115.09C151.51 115.44 151.2 115.71 150.81 115.91C150.42 116.11 149.99 116.21 149.5 116.21ZM149.66 115.31C150.1 115.31 150.49 115.21 150.82 115.01C151.15 114.81 151.41 114.52 151.6 114.16C151.79 113.8 151.88 113.38 151.88 112.91C151.88 112.44 151.78 112.02 151.59 111.66C151.4 111.3 151.13 111.02 150.8 110.81C150.47 110.6 150.08 110.5 149.64 110.5C149.2 110.5 148.81 110.6 148.47 110.81C148.13 111.02 147.86 111.3 147.67 111.67C147.48 112.04 147.38 112.45 147.38 112.92C147.38 113.39 147.48 113.8 147.67 114.17C147.86 114.54 148.13 114.82 148.48 115.02C148.83 115.22 149.22 115.32 149.66 115.32V115.31ZM152.78 116.08H151.84V114.38L152.03 112.82L151.84 111.3V106.54H152.78V116.09V116.08Z" fill="black"></path><path d="M157.66 116.21C157.08 116.21 156.55 116.07 156.08 115.78C155.61 115.49 155.24 115.1 154.97 114.6C154.7 114.1 154.56 113.54 154.56 112.92C154.56 112.3 154.7 111.73 154.97 111.23C155.24 110.73 155.62 110.33 156.08 110.04C156.55 109.75 157.07 109.6 157.66 109.6C158.14 109.6 158.57 109.69 158.96 109.88C159.35 110.07 159.67 110.34 159.92 110.68C160.17 111.02 160.33 111.43 160.37 111.9V113.88C160.32 114.34 160.16 114.74 159.92 115.09C159.67 115.44 159.36 115.71 158.97 115.91C158.58 116.11 158.15 116.21 157.66 116.21ZM157.82 115.31C158.26 115.31 158.65 115.21 158.98 115.01C159.31 114.81 159.57 114.52 159.76 114.16C159.95 113.8 160.04 113.38 160.04 112.91C160.04 112.44 159.94 112.02 159.75 111.66C159.56 111.3 159.29 111.02 158.96 110.81C158.63 110.6 158.24 110.5 157.8 110.5C157.36 110.5 156.97 110.6 156.63 110.81C156.29 111.02 156.02 111.3 155.83 111.67C155.64 112.04 155.54 112.45 155.54 112.92C155.54 113.39 155.64 113.8 155.83 114.17C156.02 114.54 156.29 114.82 156.64 115.02C156.99 115.22 157.38 115.32 157.82 115.32V115.31ZM160.94 116.08H160V114.38L160.19 112.82L160 111.3V106.54H160.94V116.09V116.08Z" fill="black"></path><path d="M163.6 108.36C163.42 108.36 163.27 108.3 163.14 108.16C163.01 108.03 162.95 107.87 162.95 107.69C162.95 107.51 163.01 107.34 163.14 107.22C163.27 107.09 163.42 107.03 163.6 107.03C163.8 107.03 163.96 107.09 164.08 107.22C164.2 107.35 164.26 107.5 164.26 107.69C164.26 107.88 164.2 108.03 164.08 108.16C163.96 108.29 163.8 108.36 163.6 108.36ZM163.13 116.08V109.74H164.09V116.08H163.13Z" fill="black"></path><path d="M166.27 116.07V109.73H167.21V116.07H166.27ZM170.88 116.07V112.35C170.88 111.79 170.72 111.34 170.39 110.99C170.06 110.64 169.63 110.47 169.09 110.47C168.72 110.47 168.4 110.55 168.12 110.71C167.84 110.87 167.62 111.09 167.46 111.37C167.3 111.65 167.22 111.97 167.22 112.33L166.79 112.09C166.79 111.61 166.9 111.19 167.13 110.81C167.35 110.43 167.66 110.14 168.04 109.92C168.42 109.7 168.86 109.6 169.36 109.6C169.86 109.6 170.28 109.72 170.66 109.95C171.04 110.18 171.33 110.5 171.54 110.89C171.75 111.29 171.86 111.72 171.86 112.19V116.08H170.9L170.88 116.07Z" fill="black"></path><path d="M176.57 116.01C175.99 116.01 175.46 115.87 174.99 115.59C174.52 115.31 174.15 114.93 173.88 114.44C173.61 113.95 173.48 113.41 173.48 112.79C173.48 112.17 173.61 111.63 173.88 111.15C174.15 110.67 174.51 110.29 174.98 110.01C175.45 109.73 175.97 109.59 176.56 109.59C177.05 109.59 177.5 109.68 177.89 109.87C178.28 110.06 178.6 110.33 178.83 110.67C179.06 111.01 179.21 111.42 179.27 111.89V113.68C179.22 114.14 179.07 114.54 178.82 114.89C178.58 115.24 178.26 115.51 177.88 115.7C177.5 115.89 177.06 115.99 176.57 115.99V116.01ZM176.5 118.88C175.86 118.88 175.29 118.76 174.79 118.52C174.29 118.28 173.89 117.95 173.58 117.52L174.2 116.9C174.45 117.24 174.77 117.51 175.16 117.7C175.55 117.89 176 117.98 176.52 117.98C177.24 117.98 177.81 117.79 178.24 117.4C178.67 117.01 178.88 116.49 178.88 115.82V114.24L179.07 112.8L178.88 111.37V109.74H179.82V115.82C179.82 116.43 179.68 116.97 179.4 117.43C179.12 117.89 178.73 118.25 178.23 118.5C177.73 118.75 177.15 118.88 176.48 118.88H176.5ZM176.74 115.1C177.18 115.1 177.57 115.01 177.89 114.82C178.22 114.63 178.47 114.36 178.66 114.02C178.84 113.67 178.94 113.27 178.94 112.8C178.94 112.33 178.85 111.94 178.66 111.6C178.48 111.26 178.22 110.99 177.88 110.79C177.55 110.59 177.16 110.49 176.72 110.49C176.28 110.49 175.89 110.59 175.54 110.79C175.19 110.99 174.92 111.26 174.73 111.6C174.54 111.94 174.44 112.34 174.44 112.8C174.44 113.26 174.54 113.65 174.74 114C174.94 114.35 175.21 114.62 175.55 114.82C175.89 115.01 176.29 115.11 176.74 115.11V115.1Z" fill="black"></path><path d="M187.37 116.07L184.44 109.73H185.49L187.96 115.28H187.37L189.85 109.73H190.88L187.93 116.07H187.38H187.37Z" fill="black"></path><path d="M194.82 116.21C194.22 116.21 193.68 116.06 193.2 115.77C192.72 115.48 192.35 115.08 192.07 114.59C191.8 114.1 191.66 113.54 191.66 112.92C191.66 112.3 191.8 111.73 192.07 111.23C192.34 110.73 192.72 110.33 193.2 110.04C193.68 109.75 194.21 109.6 194.81 109.6C195.3 109.6 195.73 109.7 196.11 109.89C196.49 110.08 196.8 110.35 197.04 110.7C197.28 111.05 197.42 111.45 197.48 111.91V113.89C197.43 114.35 197.28 114.75 197.04 115.1C196.8 115.45 196.49 115.72 196.11 115.92C195.73 116.12 195.3 116.21 194.82 116.21ZM194.97 115.31C195.63 115.31 196.16 115.09 196.56 114.65C196.96 114.21 197.16 113.63 197.16 112.91C197.16 112.43 197.07 112.01 196.88 111.65C196.7 111.29 196.44 111 196.11 110.8C195.78 110.6 195.4 110.5 194.96 110.5C194.52 110.5 194.11 110.6 193.77 110.81C193.42 111.02 193.15 111.3 192.95 111.67C192.75 112.03 192.65 112.45 192.65 112.92C192.65 113.39 192.75 113.8 192.95 114.16C193.15 114.52 193.43 114.8 193.78 115.01C194.13 115.22 194.53 115.32 194.98 115.32L194.97 115.31ZM197.1 116.08V114.38L197.29 112.82L197.1 111.3V109.75H198.04V116.09H197.1V116.08Z" fill="black"></path><path d="M200.23 116.07V106.52H201.17V116.07H200.23Z" fill="black"></path><path d="M205.87 116.21C205.36 116.21 204.9 116.09 204.49 115.85C204.08 115.61 203.77 115.29 203.54 114.87C203.31 114.45 203.2 113.97 203.2 113.41V109.73H204.16V113.37C204.16 113.76 204.23 114.09 204.37 114.38C204.51 114.67 204.71 114.89 204.97 115.05C205.23 115.21 205.53 115.29 205.87 115.29C206.4 115.29 206.82 115.11 207.13 114.76C207.44 114.41 207.6 113.94 207.6 113.36V109.72H208.54V113.4C208.54 113.95 208.43 114.43 208.2 114.86C207.97 115.28 207.66 115.61 207.26 115.84C206.86 116.07 206.39 116.19 205.87 116.19V116.21Z" fill="black"></path><path d="M213.51 116.21C212.87 116.21 212.3 116.07 211.8 115.78C211.3 115.49 210.9 115.1 210.61 114.59C210.32 114.09 210.17 113.52 210.17 112.89C210.17 112.26 210.31 111.71 210.6 111.21C210.89 110.71 211.28 110.32 211.77 110.03C212.26 109.74 212.82 109.6 213.43 109.6C214.01 109.6 214.52 109.73 214.96 109.99C215.4 110.25 215.76 110.61 216.01 111.08C216.27 111.54 216.39 112.08 216.39 112.68C216.39 112.75 216.39 112.83 216.38 112.93C216.38 113.02 216.35 113.13 216.33 113.26H210.84V112.45H215.82L215.48 112.75C215.48 112.28 215.41 111.88 215.24 111.54C215.07 111.2 214.84 110.94 214.52 110.76C214.21 110.58 213.83 110.48 213.39 110.48C212.95 110.48 212.53 110.58 212.19 110.78C211.85 110.98 211.58 111.25 211.39 111.61C211.2 111.97 211.1 112.39 211.1 112.87C211.1 113.35 211.2 113.78 211.4 114.15C211.6 114.52 211.89 114.81 212.25 115.01C212.61 115.21 213.03 115.32 213.51 115.32C213.9 115.32 214.25 115.25 214.58 115.11C214.9 114.97 215.18 114.76 215.4 114.48L216.01 115.1C215.71 115.45 215.35 115.72 214.91 115.92C214.47 116.11 214 116.21 213.5 116.21H213.51Z" fill="black"></path><path d="M224.02 116.21C223.42 116.21 222.88 116.06 222.4 115.77C221.92 115.48 221.55 115.08 221.27 114.59C221 114.1 220.86 113.54 220.86 112.92C220.86 112.3 221 111.73 221.27 111.23C221.54 110.73 221.92 110.33 222.4 110.04C222.88 109.75 223.41 109.6 224.01 109.6C224.5 109.6 224.93 109.7 225.31 109.89C225.69 110.08 226 110.35 226.24 110.7C226.48 111.05 226.62 111.45 226.68 111.91V113.89C226.63 114.35 226.48 114.75 226.24 115.1C226 115.45 225.69 115.72 225.31 115.92C224.93 116.12 224.5 116.21 224.02 116.21ZM224.17 115.31C224.83 115.31 225.36 115.09 225.76 114.65C226.16 114.21 226.36 113.63 226.36 112.91C226.36 112.43 226.27 112.01 226.08 111.65C225.9 111.29 225.64 111 225.31 110.8C224.98 110.6 224.6 110.5 224.16 110.5C223.72 110.5 223.31 110.6 222.97 110.81C222.62 111.02 222.35 111.3 222.15 111.67C221.95 112.03 221.85 112.45 221.85 112.92C221.85 113.39 221.95 113.8 222.15 114.16C222.35 114.52 222.63 114.8 222.98 115.01C223.33 115.22 223.73 115.32 224.18 115.32L224.17 115.31ZM226.3 116.08V114.38L226.49 112.82L226.3 111.3V109.75H227.24V116.09H226.3V116.08Z" fill="black"></path><path d="M228.74 110.58V109.73H232.88V110.58H228.74ZM230.35 116.07V107.06H231.29V116.07H230.35Z" fill="black"></path><path d="M240.53 116.21C239.89 116.21 239.32 116.07 238.82 115.78C238.32 115.49 237.92 115.1 237.63 114.59C237.34 114.09 237.19 113.52 237.19 112.89C237.19 112.26 237.33 111.71 237.62 111.21C237.91 110.71 238.3 110.32 238.79 110.03C239.28 109.74 239.84 109.6 240.45 109.6C241.03 109.6 241.54 109.73 241.98 109.99C242.42 110.25 242.78 110.61 243.03 111.08C243.29 111.54 243.41 112.08 243.41 112.68C243.41 112.75 243.41 112.83 243.4 112.93C243.4 113.02 243.37 113.13 243.35 113.26H237.86V112.45H242.84L242.5 112.75C242.5 112.28 242.43 111.88 242.26 111.54C242.09 111.2 241.86 110.94 241.54 110.76C241.23 110.58 240.85 110.48 240.41 110.48C239.97 110.48 239.55 110.58 239.21 110.78C238.87 110.98 238.6 111.25 238.41 111.61C238.22 111.97 238.12 112.39 238.12 112.87C238.12 113.35 238.22 113.78 238.42 114.15C238.62 114.52 238.91 114.81 239.27 115.01C239.63 115.21 240.05 115.32 240.53 115.32C240.92 115.32 241.27 115.25 241.6 115.11C241.92 114.97 242.2 114.76 242.42 114.48L243.03 115.1C242.73 115.45 242.37 115.72 241.93 115.92C241.49 116.11 241.02 116.21 240.52 116.21H240.53Z" fill="black"></path><path d="M247.24 116.07L244.31 109.73H245.36L247.83 115.28H247.24L249.72 109.73H250.75L247.8 116.07H247.25H247.24Z" fill="black"></path><path d="M254.86 116.21C254.22 116.21 253.65 116.07 253.15 115.78C252.65 115.49 252.25 115.1 251.96 114.59C251.67 114.09 251.52 113.52 251.52 112.89C251.52 112.26 251.66 111.71 251.95 111.21C252.24 110.71 252.63 110.32 253.12 110.03C253.61 109.74 254.17 109.6 254.78 109.6C255.36 109.6 255.87 109.73 256.31 109.99C256.75 110.25 257.11 110.61 257.36 111.08C257.62 111.54 257.74 112.08 257.74 112.68C257.74 112.75 257.74 112.83 257.73 112.93C257.73 113.02 257.7 113.13 257.68 113.26H252.19V112.45H257.17L256.83 112.75C256.83 112.28 256.76 111.88 256.59 111.54C256.42 111.2 256.19 110.94 255.87 110.76C255.56 110.58 255.18 110.48 254.74 110.48C254.3 110.48 253.88 110.58 253.54 110.78C253.2 110.98 252.93 111.25 252.74 111.61C252.55 111.97 252.45 112.39 252.45 112.87C252.45 113.35 252.55 113.78 252.75 114.15C252.95 114.52 253.24 114.81 253.6 115.01C253.96 115.21 254.38 115.32 254.86 115.32C255.25 115.32 255.6 115.25 255.93 115.11C256.25 114.97 256.53 114.76 256.75 114.48L257.36 115.1C257.06 115.45 256.7 115.72 256.26 115.92C255.82 116.11 255.35 116.21 254.85 116.21H254.86Z" fill="black"></path><path d="M259.46 116.07V109.73H260.4V116.07H259.46ZM260.4 112.37L260.01 112.19C260.01 111.39 260.21 110.76 260.6 110.29C260.99 109.82 261.53 109.59 262.21 109.59C262.52 109.59 262.81 109.65 263.07 109.76C263.33 109.87 263.57 110.05 263.8 110.29L263.18 110.95C263.03 110.78 262.86 110.66 262.67 110.59C262.49 110.52 262.28 110.48 262.04 110.48C261.55 110.48 261.16 110.64 260.85 110.96C260.54 111.28 260.39 111.75 260.39 112.37H260.4Z" fill="black"></path><path d="M267.07 116.1L264.29 109.73H265.33L267.57 115.05H267.18L269.54 109.73H270.59L267.61 116.1H267.07ZM265.34 118.74L267.08 115.14L267.61 116.1L266.38 118.74H265.34Z" fill="black"></path><path d="M275.28 116.07V106.52H276.22V116.07H275.28ZM279.37 116.07L276.13 112.82L279.31 109.73H280.48L277.01 113.06L277.04 112.52L280.62 116.07H279.37Z" fill="black"></path><path d="M284.6 116.21C283.96 116.21 283.39 116.07 282.89 115.78C282.39 115.49 281.99 115.1 281.7 114.59C281.41 114.09 281.26 113.52 281.26 112.89C281.26 112.26 281.4 111.71 281.69 111.21C281.98 110.71 282.37 110.32 282.86 110.03C283.35 109.74 283.91 109.6 284.52 109.6C285.1 109.6 285.61 109.73 286.05 109.99C286.5 110.25 286.85 110.61 287.1 111.08C287.36 111.54 287.48 112.08 287.48 112.68C287.48 112.75 287.48 112.83 287.47 112.93C287.47 113.02 287.44 113.13 287.42 113.26H281.93V112.45H286.91L286.57 112.75C286.57 112.28 286.5 111.88 286.33 111.54C286.16 111.2 285.93 110.94 285.61 110.76C285.3 110.58 284.92 110.48 284.48 110.48C284.04 110.48 283.62 110.58 283.28 110.78C282.94 110.98 282.67 111.25 282.48 111.61C282.29 111.97 282.19 112.39 282.19 112.87C282.19 113.35 282.29 113.78 282.49 114.15C282.69 114.52 282.98 114.81 283.34 115.01C283.7 115.21 284.12 115.32 284.6 115.32C284.99 115.32 285.34 115.25 285.67 115.11C285.99 114.97 286.27 114.76 286.49 114.48L287.1 115.1C286.8 115.45 286.44 115.72 286 115.92C285.56 116.11 285.09 116.21 284.59 116.21H284.6Z" fill="black"></path><path d="M291.21 116.1L288.43 109.73H289.47L291.71 115.05H291.32L293.68 109.73H294.73L291.75 116.1H291.21ZM289.48 118.74L291.22 115.14L291.75 116.1L290.52 118.74H289.48Z" fill="black"></path><path d="M301.36 116.21C301.02 116.21 300.69 116.16 300.38 116.07C300.07 115.98 299.78 115.84 299.52 115.67C299.26 115.5 299.04 115.3 298.85 115.06L299.46 114.44C299.71 114.75 300 114.97 300.32 115.12C300.64 115.27 301 115.34 301.39 115.34C301.81 115.34 302.14 115.26 302.38 115.1C302.62 114.94 302.74 114.71 302.74 114.43C302.74 114.16 302.65 113.95 302.48 113.8C302.31 113.65 302.09 113.53 301.83 113.44C301.57 113.35 301.28 113.26 300.99 113.18C300.7 113.1 300.41 112.99 300.14 112.86C299.87 112.73 299.65 112.55 299.49 112.31C299.33 112.07 299.24 111.77 299.24 111.39C299.24 111.01 299.33 110.72 299.5 110.45C299.68 110.18 299.93 109.98 300.26 109.83C300.59 109.68 300.98 109.61 301.43 109.61C301.91 109.61 302.34 109.7 302.72 109.87C303.11 110.04 303.42 110.29 303.65 110.63L303.04 111.24C302.85 111 302.62 110.81 302.33 110.68C302.05 110.55 301.73 110.48 301.38 110.48C300.98 110.48 300.67 110.56 300.46 110.72C300.25 110.88 300.14 111.08 300.14 111.33C300.14 111.58 300.23 111.76 300.4 111.9C300.57 112.04 300.79 112.15 301.05 112.24C301.32 112.33 301.6 112.41 301.89 112.5C302.18 112.59 302.47 112.7 302.74 112.84C303.01 112.98 303.23 113.17 303.39 113.41C303.56 113.65 303.64 113.97 303.64 114.37C303.64 114.94 303.44 115.39 303.03 115.73C302.62 116.07 302.07 116.24 301.36 116.24V116.21Z" fill="black"></path><path d="M304.77 110.58V109.73H308.91V110.58H304.77ZM306.38 116.07V107.06H307.32V116.07H306.38Z" fill="black"></path><path d="M312.99 116.21C312.39 116.21 311.85 116.06 311.37 115.77C310.89 115.48 310.52 115.08 310.24 114.59C309.97 114.1 309.83 113.54 309.83 112.92C309.83 112.3 309.97 111.73 310.24 111.23C310.51 110.73 310.89 110.33 311.37 110.04C311.85 109.75 312.38 109.6 312.98 109.6C313.47 109.6 313.9 109.7 314.28 109.89C314.66 110.08 314.97 110.35 315.21 110.7C315.45 111.05 315.59 111.45 315.65 111.91V113.89C315.6 114.35 315.45 114.75 315.21 115.1C314.97 115.45 314.66 115.72 314.28 115.92C313.9 116.12 313.47 116.21 312.99 116.21ZM313.14 115.31C313.8 115.31 314.33 115.09 314.73 114.65C315.13 114.21 315.33 113.63 315.33 112.91C315.33 112.43 315.24 112.01 315.05 111.65C314.87 111.29 314.61 111 314.28 110.8C313.95 110.6 313.57 110.5 313.13 110.5C312.69 110.5 312.28 110.6 311.94 110.81C311.59 111.02 311.32 111.3 311.12 111.67C310.92 112.03 310.82 112.45 310.82 112.92C310.82 113.39 310.92 113.8 311.12 114.16C311.32 114.52 311.6 114.8 311.95 115.01C312.3 115.22 312.7 115.32 313.15 115.32L313.14 115.31ZM315.27 116.08V114.38L315.46 112.82L315.27 111.3V109.75H316.21V116.09H315.27V116.08Z" fill="black"></path><path d="M321.08 116.01C320.5 116.01 319.97 115.87 319.5 115.59C319.03 115.31 318.66 114.93 318.39 114.44C318.12 113.95 317.99 113.41 317.99 112.79C317.99 112.17 318.12 111.63 318.39 111.15C318.66 110.67 319.02 110.29 319.49 110.01C319.96 109.73 320.48 109.59 321.07 109.59C321.56 109.59 322.01 109.68 322.4 109.87C322.79 110.06 323.11 110.33 323.34 110.67C323.57 111.01 323.72 111.42 323.78 111.89V113.68C323.73 114.14 323.58 114.54 323.33 114.89C323.09 115.24 322.77 115.51 322.39 115.7C322.01 115.89 321.57 115.99 321.08 115.99V116.01ZM321.01 118.88C320.37 118.88 319.8 118.76 319.3 118.52C318.8 118.28 318.4 117.95 318.09 117.52L318.71 116.9C318.96 117.24 319.28 117.51 319.67 117.7C320.06 117.89 320.51 117.98 321.03 117.98C321.75 117.98 322.32 117.79 322.75 117.4C323.18 117.01 323.39 116.49 323.39 115.82V114.24L323.58 112.8L323.39 111.37V109.74H324.33V115.82C324.33 116.43 324.19 116.97 323.91 117.43C323.63 117.89 323.24 118.25 322.74 118.5C322.24 118.75 321.66 118.88 320.99 118.88H321.01ZM321.25 115.1C321.69 115.1 322.08 115.01 322.4 114.82C322.73 114.63 322.98 114.36 323.17 114.02C323.35 113.67 323.45 113.27 323.45 112.8C323.45 112.33 323.36 111.94 323.17 111.6C322.99 111.26 322.73 110.99 322.39 110.79C322.06 110.59 321.67 110.49 321.23 110.49C320.79 110.49 320.4 110.59 320.05 110.79C319.7 110.99 319.43 111.26 319.24 111.6C319.05 111.94 318.95 112.34 318.95 112.8C318.95 113.26 319.05 113.65 319.25 114C319.45 114.35 319.72 114.62 320.06 114.82C320.4 115.01 320.8 115.11 321.25 115.11V115.1Z" fill="black"></path><path d="M329.45 116.21C328.81 116.21 328.24 116.07 327.74 115.78C327.24 115.49 326.84 115.1 326.55 114.59C326.26 114.09 326.11 113.52 326.11 112.89C326.11 112.26 326.25 111.71 326.54 111.21C326.83 110.71 327.22 110.32 327.71 110.03C328.2 109.74 328.76 109.6 329.37 109.6C329.95 109.6 330.46 109.73 330.9 109.99C331.34 110.25 331.7 110.61 331.95 111.08C332.21 111.54 332.33 112.08 332.33 112.68C332.33 112.75 332.33 112.83 332.32 112.93C332.32 113.02 332.29 113.13 332.27 113.26H326.78V112.45H331.76L331.42 112.75C331.42 112.28 331.35 111.88 331.18 111.54C331.01 111.2 330.78 110.94 330.46 110.76C330.15 110.58 329.77 110.48 329.33 110.48C328.89 110.48 328.47 110.58 328.13 110.78C327.79 110.98 327.52 111.25 327.33 111.61C327.14 111.97 327.04 112.39 327.04 112.87C327.04 113.35 327.14 113.78 327.34 114.15C327.54 114.52 327.83 114.81 328.19 115.01C328.55 115.21 328.97 115.32 329.45 115.32C329.84 115.32 330.19 115.25 330.52 115.11C330.84 114.97 331.12 114.76 331.34 114.48L331.95 115.1C331.65 115.45 331.29 115.72 330.85 115.92C330.41 116.11 329.94 116.21 329.44 116.21H329.45Z" fill="black"></path></g><defs><clipPath id="clip0_801_153"><rect width="332.42" height="118.88" fill="white"></rect></clipPath></defs></svg>